<?xml version="1.0" encoding="utf-8"?>
<!-- Generator: Adobe Illustrator 16.0.0, SVG Export Plug-In . SVG Version: 6.00 Build 0)  -->
<!DOCTYPE svg PUBLIC "-//W3C//DTD SVG 1.1//EN" "http://www.w3.org/Graphics/SVG/1.1/DTD/svg11.dtd">
<svg version="1.1" id="Layer_1" xmlns="http://www.w3.org/2000/svg" xmlns:xlink="http://www.w3.org/1999/xlink" x="0px" y="0px"
	 width="300px" height="300px" viewBox="0 0 300 300" enable-background="new 0 0 300 300" xml:space="preserve">
<rect x="81.471" y="72.547" transform="matrix(-0.7071 -0.7071 0.7071 -0.7071 93.0205 224.6186)" width="23.114" height="40.995"/>
<rect x="62.471" y="53.528" transform="matrix(-0.7071 -0.7071 0.7071 -0.7071 74.0232 178.7112)" width="23.105" height="40.994"/>
<polygon points="135.561,100.289 141.075,105.805 105.798,141.082 100.283,135.566 103.426,132.424 89.848,118.846 118.838,89.855 
	132.416,103.434 "/>
<g>
	<path d="M39.029,39.03"/>
	<path d="M57.887,57.887"/>
	<path d="M57.887,57.887"/>
</g>
<polygon points="24.247,53.238 21.969,36.475 36.475,21.969 53.236,24.247 53.521,24.537 68.969,46.805 72.379,43.396 
	77.896,48.914 48.906,77.904 43.388,72.387 46.798,68.977 24.529,53.529 "/>
<path d="M216.89,216.89"/>
<path d="M245.156,278.031l-30.455-30.454l-0.664-0.664c-12.551,12.549-24.836-2.334-24.836-2.334l-1.043-0.967L99.203,154.58
	l55.392-55.392l88.454,88.378l1.537,1.627c0,0,14.883,12.287,2.332,24.836l0.666,0.666l30.447,30.461"/>
<line fill="none" x1="99.191" y1="154.584" x2="154.584" y2="99.191"/>
<circle fill="#FFFFFF" cx="196.046" cy="210.088" r="11.076"/>
<line fill="none" stroke="#FFFFFF" stroke-width="6" stroke-miterlimit="10" x1="196.046" y1="210.088" x2="180.612" y2="146.471"/>
<circle fill="#FFFFFF" cx="152.151" cy="166.169" r="11.077"/>
</svg>
